<?xml version="1.0" encoding="utf-8"?>
<!-- Uploaded to: SVG Repo, www.svgrepo.com, Generator: SVG Repo Mixer Tools -->
<svg width="800px" height="800px" viewBox="0 0 1024 1024" class="icon"  version="1.1" xmlns="http://www.w3.org/2000/svg"><path d="M853.333333 874.666667H170.666667c-46.933333 0-85.333333-38.4-85.333334-85.333334V343.466667c0-27.733333 12.8-53.333333 36.266667-70.4L512 0l390.4 273.066667c23.466667 14.933333 36.266667 42.666667 36.266667 70.4V789.333333c0 46.933333-38.4 85.333333-85.333334 85.333334z" fill="#78909C" /><path d="M256 234.666667h512v469.333333H256z" fill="#FFFFFF" /><path d="M853.333333 874.666667H170.666667c-46.933333 0-85.333333-38.4-85.333334-85.333334V362.666667l426.666667 277.333333 426.666667-277.333333v426.666666c0 46.933333-38.4 85.333333-85.333334 85.333334z" fill="#CFD8DC" /><path d="M469.333333 298.666667h85.333334v256h-85.333334z" fill="#4CAF50" /><path d="M384 384h256v85.333333H384z" fill="#4CAF50" /></svg>